# Blender 3.5.1
# www.blender.org
mtllib ship_tex.mtl
o Ship
v -0.478599 0.000000 0.074514
v -0.478599 0.014632 0.073073
v -0.478599 0.028701 0.068805
v -0.478599 0.041668 0.061874
v -0.478599 0.053033 0.052547
v -0.478599 0.062360 0.041182
v -0.478599 0.069291 0.028215
v -0.478599 0.073559 0.014146
v -0.478599 0.075000 -0.000486
v -0.478599 0.073559 -0.015118
v -0.478599 0.069291 -0.029187
v -0.478599 0.062360 -0.042154
v -0.478599 0.053033 -0.053519
v -0.478599 0.041668 -0.062846
v -0.478599 0.028701 -0.069777
v -0.478599 0.014632 -0.074045
v -0.478599 0.000000 -0.075486
v -0.478599 -0.014632 -0.074045
v -0.478599 -0.028701 -0.069777
v -0.478599 -0.041668 -0.062846
v -0.478599 -0.053033 -0.053519
v -0.478599 -0.062360 -0.042154
v -0.478599 -0.069291 -0.029187
v -0.478599 -0.073559 -0.015118
v -0.478599 -0.075000 -0.000486
v -0.478599 -0.073559 0.014146
v -0.478599 -0.069291 0.028215
v -0.478599 -0.062360 0.041182
v -0.478599 -0.053033 0.052547
v -0.478599 -0.041668 0.061874
v -0.478599 -0.028701 0.068805
v -0.478599 -0.014632 0.073073
v -0.642359 0.014632 0.073073
v -0.642359 0.000000 0.074514
v -0.642359 0.028701 0.068805
v -0.642359 0.041668 0.061874
v -0.642359 0.053033 0.052547
v -0.642359 0.062360 0.041182
v -0.642359 0.069291 0.028215
v -0.642359 0.073559 0.014146
v -0.642359 0.075000 -0.000486
v -0.642359 0.073559 -0.015118
v -0.642359 0.069291 -0.029187
v -0.642359 0.062360 -0.042154
v -0.642359 0.053033 -0.053519
v -0.642359 0.041668 -0.062846
v -0.642359 0.028701 -0.069777
v -0.642359 0.014632 -0.074045
v -0.642359 0.000000 -0.075486
v -0.642359 -0.014632 -0.074045
v -0.642359 -0.028701 -0.069777
v -0.642359 -0.041668 -0.062846
v -0.642359 -0.053033 -0.053519
v -0.642359 -0.062360 -0.042154
v -0.642359 -0.069291 -0.029187
v -0.642359 -0.073559 -0.015118
v -0.642359 -0.075000 -0.000486
v -0.642359 -0.073559 0.014146
v -0.642359 -0.069291 0.028215
v -0.642359 -0.062360 0.041182
v -0.642359 -0.053033 0.052547
v -0.642359 -0.041668 0.061874
v -0.642359 -0.028701 0.068805
v -0.642359 -0.014632 0.073073
v 0.232452 -0.000001 0.000136
v -0.639120 0.000004 -0.374923
v -0.639116 0.000003 0.425476
v -0.483861 -0.192330 -0.002210
v -0.483861 0.000008 -0.002210
v 0.232452 0.000001 0.000136
v -0.639120 -0.000004 -0.374923
v -0.639116 -0.000003 0.425476
v -0.483861 0.192330 -0.002210
v -0.483861 -0.000008 -0.002210
vn 1.0000 -0.0000 -0.0000
vn -1.0000 -0.0000 -0.0000
vn -0.0000 -0.9808 0.1951
vn -0.0000 -0.9239 0.3827
vn -0.0000 0.7071 -0.7071
vn -0.0000 0.5556 -0.8315
vn -0.0000 -0.8315 0.5556
vn -0.0000 0.3827 -0.9239
vn -0.0000 -0.0000 1.0000
vn -0.0000 0.1951 0.9808
vn -0.0000 -0.7071 0.7071
vn -0.0000 0.1951 -0.9808
vn -0.0000 0.3827 0.9239
vn -0.0000 -0.5556 0.8315
vn -0.0000 -0.0000 -1.0000
vn -0.0000 0.5556 0.8315
vn -0.0000 -0.3827 0.9239
vn -0.0000 -0.1951 -0.9808
vn -0.0000 0.7071 0.7071
vn -0.0000 -0.1951 0.9808
vn -0.0000 -0.3827 -0.9239
vn -0.0000 0.8315 0.5556
vn -0.0000 -0.5556 -0.8315
vn -0.0000 0.9239 0.3827
vn -0.0000 -0.7071 -0.7071
vn -0.0000 0.9808 0.1951
vn -0.0000 -0.8315 -0.5556
vn -0.0000 1.0000 -0.0000
vn -0.0000 -0.9239 -0.3827
vn -0.0000 0.9808 -0.1951
vn -0.0000 -0.9808 -0.1951
vn -0.0000 0.9239 -0.3827
vn -0.0000 -1.0000 -0.0000
vn -0.0000 0.8315 -0.5556
vn -0.2233 0.8252 0.5188
vn -0.2279 0.8544 -0.4670
vn 0.9231 -0.0000 -0.3845
vn 0.9400 -0.0000 0.3412
vn 0.2233 0.8252 -0.5188
vn 0.2279 0.8544 0.4670
vn -0.9231 -0.0000 0.3845
vn -0.9400 -0.0000 -0.3412
vt 0.000000 0.000000
vt 0.998444 0.672722
vt 0.000000 0.000000
vt 0.998444 0.680339
vt 0.000000 0.000000
vt 0.998444 0.687957
vt 0.000000 0.000000
vt 0.998444 0.695575
vt 0.000000 0.000000
vt 0.998444 0.703193
vt 0.000000 0.000000
vt 0.998444 0.710810
vt 0.000000 0.000000
vt 0.998444 0.718428
vt 0.000000 0.000000
vt 0.998444 0.726046
vt 0.000000 0.000000
vt 0.998444 0.733664
vt 0.000000 0.000000
vt 0.998444 0.741282
vt 0.998444 0.497513
vt 0.000000 0.000000
vt 0.998444 0.505130
vt 0.000000 0.000000
vt 0.998444 0.512748
vt 0.000000 0.000000
vt 0.998444 0.520366
vt 0.000000 0.000000
vt 0.998444 0.527984
vt 0.000000 0.000000
vt 0.998444 0.535601
vt 0.000000 0.000000
vt 0.998444 0.543219
vt 0.000000 0.000000
vt 0.998444 0.550837
vt 0.000000 0.000000
vt 0.998444 0.558455
vt 0.000000 0.000000
vt 0.998444 0.566073
vt 0.000000 0.000000
vt 0.998444 0.573690
vt 0.000000 0.000000
vt 0.998444 0.581308
vt 0.000000 0.000000
vt 0.998444 0.588926
vt 0.000000 0.000000
vt 0.998444 0.596544
vt 0.000000 0.000000
vt 0.998444 0.604162
vt 0.000000 0.000000
vt 0.998444 0.611779
vt 0.000000 0.000000
vt 0.998444 0.619397
vt 0.000000 0.000000
vt 0.998444 0.627015
vt 0.000000 0.000000
vt 0.998444 0.634633
vt 0.000000 0.000000
vt 0.998444 0.642250
vt 0.000000 0.000000
vt 0.998444 0.649868
vt 0.000000 0.000000
vt 0.998444 0.657486
vt 0.000000 0.000000
vt 0.998444 0.665104
vt 0.878732 0.661878
vt 0.913596 0.680339
vt 0.886204 0.660392
vt 0.913596 0.672722
vt 0.871115 0.661878
vt 0.913596 0.687957
vt 0.863643 0.660392
vt 0.913596 0.695575
vt 0.856605 0.657477
vt 0.913596 0.703193
vt 0.850271 0.653245
vt 0.913596 0.710810
vt 0.844885 0.647858
vt 0.913596 0.718428
vt 0.840652 0.641524
vt 0.913596 0.726046
vt 0.837737 0.634486
vt 0.913596 0.733664
vt 0.836251 0.627015
vt 0.913596 0.741282
vt 0.913596 0.497513
vt 0.836251 0.619397
vt 0.913596 0.505130
vt 0.837737 0.611926
vt 0.913596 0.512748
vt 0.840652 0.604888
vt 0.913596 0.520366
vt 0.844885 0.598554
vt 0.913596 0.527984
vt 0.850271 0.593167
vt 0.913596 0.535601
vt 0.856605 0.588935
vt 0.913596 0.543219
vt 0.863643 0.586020
vt 0.913596 0.550837
vt 0.871115 0.584534
vt 0.913596 0.558455
vt 0.878732 0.584534
vt 0.913596 0.566073
vt 0.886204 0.586020
vt 0.913596 0.573690
vt 0.893242 0.588935
vt 0.913596 0.581308
vt 0.899576 0.593167
vt 0.913596 0.588926
vt 0.904962 0.598554
vt 0.913596 0.596544
vt 0.909194 0.604888
vt 0.913596 0.604162
vt 0.912110 0.611926
vt 0.913596 0.611779
vt 0.913596 0.619397
vt 0.913596 0.627015
vt 0.912110 0.634486
vt 0.913596 0.634633
vt 0.909194 0.641524
vt 0.913596 0.642250
vt 0.904962 0.647858
vt 0.913596 0.649868
vt 0.899576 0.653245
vt 0.913596 0.657486
vt 0.893242 0.657477
vt 0.913596 0.665104
vt 0.413555 1.000000
vt 0.000000 0.734174
vt 0.413555 0.497513
vt 0.221768 0.666992
vt 0.154666 0.593313
vt 0.190061 0.572515
vt 0.836251 0.497513
vt 0.836251 0.989134
vt 0.413555 0.769214
vt 0.659824 0.838908
vt 0.634128 0.935193
vt 0.597494 0.916664
s 1
usemtl leader
f 2/3/1 1/1/1 32/64/1 31/62/1 30/60/1 29/58/1 28/56/1 27/54/1 26/52/1 25/50/1 24/48/1 23/46/1 22/44/1 21/42/1 20/40/1 19/38/1 18/36/1 17/34/1 16/32/1 15/30/1 14/28/1 13/26/1 12/24/1 11/22/1 10/19/1 9/17/1 8/15/1 7/13/1 6/11/1 5/9/1 4/7/1 3/5/1
f 33/66/2 35/70/2 36/72/2 37/74/2 38/76/2 39/78/2 40/80/2 41/82/2 42/84/2 43/87/2 44/89/2 45/91/2 46/93/2 47/95/2 48/97/2 49/99/2 50/101/2 51/103/2 52/105/2 53/107/2 54/109/2 55/111/2 56/113/2 57/115/2 58/117/2 59/118/2 60/119/2 61/121/2 62/123/2 63/125/2 64/127/2 34/68/2
f 26/53/3 27/55/4 59/118/4 58/117/3
f 13/27/5 14/29/6 46/94/6 45/92/5
f 27/55/4 28/57/7 60/120/7 59/118/4
f 14/29/6 15/31/8 47/96/8 46/94/6
f 1/2/9 2/4/10 33/67/10 34/69/9
f 28/57/7 29/59/11 61/122/11 60/120/7
f 15/31/8 16/33/12 48/98/12 47/96/8
f 2/4/10 3/6/13 35/71/13 33/67/10
f 29/59/11 30/61/14 62/124/14 61/122/11
f 16/33/12 17/35/15 49/100/15 48/98/12
f 3/6/13 4/8/16 36/73/16 35/71/13
f 30/61/14 31/63/17 63/126/17 62/124/14
f 17/35/15 18/37/18 50/102/18 49/100/15
f 4/8/16 5/10/19 37/75/19 36/73/16
f 31/63/17 32/65/20 64/128/20 63/126/17
f 18/37/18 19/39/21 51/104/21 50/102/18
f 5/10/19 6/12/22 38/77/22 37/75/19
f 32/65/20 1/2/9 34/69/9 64/128/20
f 19/39/21 20/41/23 52/106/23 51/104/21
f 6/12/22 7/14/24 39/79/24 38/77/22
f 20/41/23 21/43/25 53/108/25 52/106/23
f 7/14/24 8/16/26 40/81/26 39/79/24
f 21/43/25 22/45/27 54/110/27 53/108/25
f 8/16/26 9/18/28 41/83/28 40/81/26
f 22/45/27 23/47/29 55/112/29 54/110/27
f 9/18/28 10/20/30 42/85/30 41/83/28
f 23/47/29 24/49/31 56/114/31 55/112/29
f 10/21/30 11/23/32 43/88/32 42/86/30
f 24/49/31 25/51/33 57/116/33 56/114/31
f 11/23/32 12/25/34 44/90/34 43/88/32
f 25/51/33 26/53/3 58/117/3 57/116/33
f 12/25/34 13/27/5 45/92/5 44/90/34
s 0
f 65/129/35 66/130/35 68/132/35
f 68/132/36 67/131/36 65/129/36
f 68/132/37 66/130/37 69/133/37
f 69/134/38 67/131/38 68/132/38
f 70/135/39 71/136/39 73/138/39
f 73/138/40 72/137/40 70/135/40
f 73/138/41 71/136/41 74/139/41
f 74/140/42 72/137/42 73/138/42
o R_Wing
v 0.182436 0.006584 0.061313
v -0.735564 0.217157 0.136268
v -0.399904 -0.022949 0.383954
v 0.179727 -0.003168 0.055531
v -0.738273 0.207406 0.130486
v -0.402613 -0.032701 0.378172
vn 0.2324 0.8366 0.4961
vn -0.2324 -0.8366 -0.4961
vn 0.4270 -0.5460 0.7208
vn -0.6780 -0.2263 0.6994
vn 0.0442 0.5004 -0.8647
vt 0.835677 0.005082
vt 0.423752 0.269585
vt 0.670144 0.308094
vt 0.840977 0.007977
vt 0.832414 0.000000
vt 0.840977 0.497513
vt 0.422819 0.275552
vt 0.420489 0.264504
vt 0.675444 0.310989
vt 0.669212 0.314061
s 0
usemtl leader
f 75/141/43 76/142/43 77/143/43
f 78/144/44 80/149/44 79/146/44
f 77/143/45 80/149/45 78/144/45 75/141/45
f 76/142/46 79/147/46 80/150/46 77/143/46
f 75/141/47 78/145/47 79/148/47 76/142/47
o L_Wing
v 0.182256 0.007831 -0.047697
v -0.737092 0.219672 -0.098756
v -0.406856 -0.015333 -0.358341
v 0.179669 -0.002036 -0.042055
v -0.739679 0.209805 -0.093114
v -0.409442 -0.025200 -0.352699
vn 0.2219 0.8465 -0.4840
vn -0.2219 -0.8465 0.4840
vn 0.4114 -0.5313 -0.7406
vn -0.6928 -0.2124 -0.6891
vn 0.0628 0.4829 0.8734
vt 0.835677 0.005082
vt 0.423752 0.269585
vt 0.670144 0.308094
vt 0.840977 0.007977
vt 0.832414 0.000000
vt 0.840977 0.497513
vt 0.422819 0.275552
vt 0.420489 0.264504
vt 0.675444 0.310989
vt 0.669212 0.314061
s 0
usemtl leader
f 81/151/48 83/153/48 82/152/48
f 84/154/49 85/156/49 86/159/49
f 83/153/50 81/151/50 84/154/50 86/159/50
f 82/152/51 83/153/51 86/160/51 85/157/51
f 81/151/52 82/152/52 85/158/52 84/155/52
